# xmcd
#
# Track frame offsets:
#	150
#	18220
#	37912
#	51782
#	71630
#	87142
#	105715
#	122427
#	141087
#	155440
#	171877
#
# Disc length: 2483 seconds
#
# Revision: 2
# Processed by: cddbd v1.4PL0 Copyright (c) Steve Scherf et al.
# Submitted via: EasyCDDAExtractor 4.6.0.1
#
DISCID=8409b10b
DTITLE=Omar And The Howlers - Muddy Springs Road
DYEAR=1995
DGENRE=Blues
TTITLE0=Muddy Springs Road
TTITLE1=Black Bottom
TTITLE2=Midnight Ramblin' Man
TTITLE3=Hoo Doo Ball
TTITLE4=Life Is Just A Circle
TTITLE5=Life Without You
TTITLE6=Exactly What I Thought She'd Do
TTITLE7=Everywhere I Go
TTITLE8=Get Hip
TTITLE9=Hurry, Hurry
TTITLE10=Dangerous Man
EXTD=Omar Dykes - vocals, guitars\nGary Primich - harmonica\nNick Connolly - p
EXTD=iano, organ\nGerry "Phareaux" Felton - bass guitar\nGeorge Rains - drums\n
EXTD=Bradley Kopp - acoustic guitar\nMark Hallman - percussion
EXTT0=
EXTT1=
EXTT2=
EXTT3=
EXTT4=
EXTT5=
EXTT6=
EXTT7=
EXTT8=
EXTT9=
EXTT10=
PLAYORDER=
